<svg id="Layer_1" data-name="Layer 1" xmlns="http://www.w3.org/2000/svg" viewBox="0 0 216 216"><defs><style>.cls-1{fill:#e95740;}.cls-2{fill:#f36e52;}.cls-3{fill:#ffcd55;}</style></defs><title>icon</title><path class="cls-1" d="M95.53,49.69h9.94a3.42,3.42,0,0,0,2.06,1.05A22,22,0,0,1,117.74,57c1.76,2.07,3,2,5.26,1.41,9.15-2.18,17.57-.43,24.16,6.56s8.05,15.38,5.45,24.49c-.55,1.93-.21,3.1,1.41,4a3.55,3.55,0,0,1,.82.51c5.83,6.66,8.27,14.38,6.18,23-2.37,9.77-8.71,15.94-18.48,18.22-1.78.41-2.5,1-2.82,2.63-1.44,7.31-5.57,12.67-11.9,16.41-4.91,2.9-10.31,3.26-15.82,3-2.69-.91-5.5-1.52-8-2.91a17.66,17.66,0,0,1-5.17-4c-1.55-1.86-3.09-3.23-5.71-1.64a7.75,7.75,0,0,1-3.31.59c-8.41.67-15.75-1.49-21.46-8.09-5.17-6-7.2-12.82-5.61-20.57.74-3.58.87-6.62-2.51-9.14-2.36-1.76-3.32-4.71-4.45-7.41-.38-.9-.14-2.21-1.44-2.61V90.06a1.41,1.41,0,0,0,1-1c2.75-9.75,9.19-15.46,19-17.44,1-.19,1.74-.39,1.9-1.73a22.82,22.82,0,0,1,6.12-12.65C85.9,53.3,90.58,51.23,95.53,49.69Zm20.25,81.2c7.35.74,14-5.51,13.51-12.79-.11-1.6.81-2.39,2-3.12,7.27-4.47,9-14.65,2.92-20.52-2.84-2.75-4.68-5.2-5.55-9.33-1.9-9-12.28-11-19-7.61a3.11,3.11,0,0,1-3.36.1c-8.66-4.5-19.83.53-19.73,11.29a3,3,0,0,1-1.69,3c-8.89,4.6-8.88,18.51-.08,23.13a2.88,2.88,0,0,1,1.76,3c-.39,7.37,6.21,13.49,13.5,13,2.94-.19,5.45-2.19,8-2.06S113.05,131.38,115.78,130.89Z"/><path class="cls-2" d="M115.78,130.89c-2.73.49-5.18-1.79-7.73-1.93s-5,1.87-8,2.06c-7.29.48-13.89-5.64-13.5-13a2.88,2.88,0,0,0-1.76-3c-8.8-4.62-8.81-18.53.08-23.13a3,3,0,0,0,1.69-3c-.1-10.76,11.07-15.79,19.73-11.29a3.11,3.11,0,0,0,3.36-.1c6.69-3.42,17.07-1.38,19,7.61.87,4.13,2.71,6.58,5.55,9.33,6,5.87,4.35,16.05-2.92,20.52-1.2.73-2.12,1.52-2,3.12C129.81,125.38,123.13,131.63,115.78,130.89Zm.11-27.16c0-4.62-3.3-8.19-7.67-8.19a8,8,0,1,0-.19,15.94A7.76,7.76,0,0,0,115.89,103.73Z"/><path class="cls-3" d="M115.89,103.73a7.76,7.76,0,0,1-7.86,7.75,8,8,0,1,1,.19-15.94C112.59,95.54,115.93,99.11,115.89,103.73Z"/></svg>