<svg id="Layer_1" data-name="Layer 1" xmlns="http://www.w3.org/2000/svg" viewBox="0 0 216 216"><defs><style>.cls-1{fill:#ffc112;}.cls-2{fill:#5e4037;}.cls-3{fill:#8d6f63;}.cls-4{fill:#3d2724;}.cls-5{fill:#95c8ec;}.cls-6{fill:#71b3e2;}</style></defs><title>icon</title><rect class="cls-1" x="66.22" y="118.53" width="82.42" height="49.94" rx="23.24" transform="translate(250.92 36.07) rotate(90)"/><rect class="cls-1" x="83.26" y="61.29" width="49.42" height="43.14" rx="20.07" transform="translate(190.83 -25.1) rotate(90)"/><path class="cls-2" d="M82.46,156.5V132.94s2.62-10.39,21.79-11c28.15-.84,28.15,12,28.15,12V156.5S103.39,131.25,82.46,156.5Z"/><path class="cls-2" d="M86.39,86.23s8.07-3.45,21.57-3.37,21.57,3.37,21.57,3.37,2.13,21.34-24.34,21.34C89.5,107.57,86.39,86.23,86.39,86.23Z"/><path class="cls-3" d="M108.42,27.55c-6.92,0-25,17.05-17.92,29.11,6.31,10.8,30.94,8.92,34.51,0C130.53,42.9,118,27.55,108.42,27.55Z"/><ellipse class="cls-4" cx="123.94" cy="45.81" rx="6.01" ry="8.77" transform="translate(-7.16 62.32) rotate(-27.46)"/><path class="cls-5" d="M87.16,108.06c-2.46,7.32-2.66,15.33-5.57,22.54C78.23,138.92,68.88,146.05,61,146a3.78,3.78,0,0,1-2.78-1.34c.23-2.32-.29-4.68.5-7,5.79-17,13.15-33,21.1-48.77C82,84.56,84,80.07,86.13,75.64a32.48,32.48,0,0,0-5.5,6.53c-10.12,14.11-19.92,28.51-27,44.93-3.05,7.08-6.29,14.5-2.49,22.72C46.78,154.11,41.3,155,36,156.33c-1.5.39-3.28-.2-4.38,1.59l-15-3a2.4,2.4,0,0,0-1-2.6l.84-5.44a190.89,190.89,0,0,1,14.8-19.29c3.16-3.67,6.85-6.76,9.47-11a12.69,12.69,0,0,0,2.05-1.42q14.8-14.93,29.57-29.9a5.76,5.76,0,0,0,1.18-.75c3.68-3.59,7.27-7.29,11-10.78,1.5-1.39,3.25-2.23,5.28-.7s2.34,3.13,1.87,5.61c-.72,3.82-1.15,7.71-1.7,11.57Z"/><path class="cls-6" d="M51.14,149.82c-3.8-8.22-.56-15.64,2.49-22.72,7.08-16.42,16.88-30.82,27-44.93a32.48,32.48,0,0,1,5.5-6.53C84,80.07,82,84.56,79.81,88.92c-8,15.75-15.31,31.82-21.1,48.77-.79,2.3-.27,4.66-.5,7C55.8,146.28,54.34,149.6,51.14,149.82Z"/><path class="cls-5" d="M128.84,110.43c2.46,7.32,2.66,15.34,5.57,22.54,3.36,8.32,12.71,15.46,20.6,15.41a3.78,3.78,0,0,0,2.78-1.34c-.23-2.32.29-4.67-.5-7-5.79-17-13.15-33-21.1-48.78C134,86.93,132,82.44,129.87,78a32.48,32.48,0,0,1,5.5,6.53c10.12,14.11,19.92,28.51,27,44.93,3,7.09,6.29,14.5,2.49,22.72,4.36,4.3,9.84,5.16,15.17,6.51,1.5.39,3.28-.19,4.38,1.59l15-3a2.4,2.4,0,0,1,1-2.6l-.84-5.44A189.64,189.64,0,0,0,184.82,130c-3.16-3.67-6.85-6.77-9.47-11a13.3,13.3,0,0,1-2-1.41q-14.81-14.93-29.57-29.91a5.76,5.76,0,0,1-1.18-.75c-3.68-3.59-7.27-7.29-11-10.78-1.5-1.38-3.25-2.23-5.28-.69s-2.34,3.13-1.87,5.61c.72,3.81,1.15,7.7,1.7,11.56Z"/><path class="cls-6" d="M164.86,152.19c3.8-8.22.56-15.63-2.49-22.72-7.08-16.42-16.88-30.82-27-44.93a32.48,32.48,0,0,0-5.5-6.53c2.1,4.43,4.12,8.92,6.32,13.28,7.95,15.75,15.31,31.82,21.1,48.78.79,2.3.27,4.65.5,7C160.2,148.66,161.66,152,164.86,152.19Z"/><ellipse class="cls-4" cx="92.06" cy="45.81" rx="8.77" ry="6.01" transform="translate(8.96 106.37) rotate(-62.54)"/></svg>