<?xml version="1.0" encoding="UTF-8"?>
<svg width="1029px" height="436px" viewBox="0 0 1029 436" version="1.1" xmlns="http://www.w3.org/2000/svg" xmlns:xlink="http://www.w3.org/1999/xlink">
    <!-- Generator: Sketch 51 (57462) - http://www.bohemiancoding.com/sketch -->
    <title>Artboard</title>
    <desc>Created with Sketch.</desc>
    <defs></defs>
    <g id="Artboard" stroke="none" stroke-width="1" fill="none" fill-rule="evenodd">
        <g id="Group-3" fill="#B8F9DD" fill-rule="nonzero">
            <g id="Group-2" transform="translate(91.000000, 2.000000)">
                <g id="Group" transform="translate(30.871166, 0.000000)">
                    <path d="M56.2944785,69.0772831 L56.2944785,101.721211 C46.8786761,107.161866 37.4628736,112.60252 28.2474074,118.244681 C18.8316049,112.804026 9.41580246,107.161866 0,101.721211 L0,69.0772831 C9.41580246,63.6366285 18.8316049,58.1959738 28.2474074,52.7553191 C37.4628736,58.1959738 46.8786761,63.6366285 56.2944785,69.0772831 Z" id="Shape"></path>
                    <path d="M87.1656442,16.321964 L87.1656442,48.965892 C77.7498417,54.4065466 68.3340393,59.8472013 59.118573,65.4893617 C49.7027706,60.048707 40.2869681,54.4065466 30.8711656,48.965892 L30.8711656,16.321964 C40.2869681,10.8813093 49.7027706,5.44065466 59.118573,0 C68.3340393,5.44065466 77.7498417,10.8813093 87.1656442,16.321964 Z" id="Shape"></path>
                    <path d="M117.128834,69.0772831 L117.128834,101.721211 C107.713032,107.161866 98.2972294,112.60252 89.0817632,118.244681 C79.6659607,112.804026 70.2501583,107.161866 60.8343558,101.721211 L60.8343558,69.0772831 C70.2501583,63.6366285 79.6659607,58.1959738 89.0817632,52.7553191 C98.2972294,58.1959738 107.713032,63.6366285 117.128834,69.0772831 Z" id="Shape-Copy"></path>
                </g>
                <g id="Group-Copy" transform="translate(0.000000, 105.510638)">
                    <path d="M56.2944785,16.321964 L56.2944785,48.965892 C46.8786761,54.4065466 37.4628736,59.8472013 28.2474074,65.4893617 C18.8316049,60.048707 9.41580246,54.4065466 0,48.965892 L0,16.321964 C9.41580246,10.8813093 18.8316049,5.44065466 28.2474074,0 C37.4628736,5.44065466 46.8786761,10.8813093 56.2944785,16.321964 Z" id="Shape"></path>
                    <path d="M117.128834,16.321964 L117.128834,48.965892 C107.713032,54.4065466 98.2972294,59.8472013 89.0817632,65.4893617 C79.6659607,60.048707 70.2501583,54.4065466 60.8343558,48.965892 L60.8343558,16.321964 C70.2501583,10.8813093 79.6659607,5.44065466 89.0817632,0 C98.2972294,5.44065466 107.713032,10.8813093 117.128834,16.321964 Z" id="Shape-Copy"></path>
                </g>
            </g>
            <g id="Group-2-Copy" transform="translate(29.000000, 160.000000)">
                <g id="Group" transform="translate(91.705521, 0.000000)">
                    <path d="M56.2944785,16.2881893 L56.2944785,48.864568 C46.8786761,54.2939645 37.4628736,59.7233609 28.2474074,65.3538462 C18.8316049,59.9244497 9.41580246,54.2939645 0,48.864568 L0,16.2881893 C9.41580246,10.8587929 18.8316049,5.42939645 28.2474074,0 C37.4628736,5.42939645 46.8786761,10.8587929 56.2944785,16.2881893 Z" id="Shape-Copy"></path>
                </g>
                <g id="Group-Copy" transform="translate(0.000000, 52.646154)">
                    <path d="M56.2944785,16.2881893 L56.2944785,48.864568 C46.8786761,54.2939645 37.4628736,59.7233609 28.2474074,65.3538462 C18.8316049,59.9244497 9.41580246,54.2939645 0,48.864568 L0,16.2881893 C9.41580246,10.8587929 18.8316049,5.42939645 28.2474074,0 C37.4628736,5.42939645 46.8786761,10.8587929 56.2944785,16.2881893 Z" id="Shape"></path>
                    <path d="M117.128834,16.2881893 L117.128834,48.864568 C107.713032,54.2939645 98.2972294,59.7233609 89.0817632,65.3538462 C79.6659607,59.9244497 70.2501583,54.2939645 60.8343558,48.864568 L60.8343558,16.2881893 C70.2501583,10.8587929 79.6659607,5.42939645 89.0817632,0 C98.2972294,5.42939645 107.713032,10.8587929 117.128834,16.2881893 Z" id="Shape-Copy"></path>
                </g>
            </g>
            <g id="Group-2-Copy-2" transform="translate(182.000000, 107.000000)">
                <g id="Group" transform="translate(30.871166, 0.000000)">
                    <path d="M56.2944785,16.2881893 L56.2944785,48.864568 C46.8786761,54.2939645 37.4628736,59.7233609 28.2474074,65.3538462 C18.8316049,59.9244497 9.41580246,54.2939645 0,48.864568 L0,16.2881893 C9.41580246,10.8587929 18.8316049,5.42939645 28.2474074,0 C37.4628736,5.42939645 46.8786761,10.8587929 56.2944785,16.2881893 Z" id="Shape"></path>
                    <path d="M117.128834,16.2881893 L117.128834,48.864568 C107.713032,54.2939645 98.2972294,59.7233609 89.0817632,65.3538462 C79.6659607,59.9244497 70.2501583,54.2939645 60.8343558,48.864568 L60.8343558,16.2881893 C70.2501583,10.8587929 79.6659607,5.42939645 89.0817632,0 C98.2972294,5.42939645 107.713032,10.8587929 117.128834,16.2881893 Z" id="Shape-Copy"></path>
                </g>
                <g id="Group-Copy" transform="translate(0.000000, 52.646154)">
                    <path d="M56.2944785,16.2881893 L56.2944785,48.864568 C46.8786761,54.2939645 37.4628736,59.7233609 28.2474074,65.3538462 C18.8316049,59.9244497 9.41580246,54.2939645 0,48.864568 L0,16.2881893 C9.41580246,10.8587929 18.8316049,5.42939645 28.2474074,0 C37.4628736,5.42939645 46.8786761,10.8587929 56.2944785,16.2881893 Z" id="Shape"></path>
                    <path d="M117.128834,16.2881893 L117.128834,48.864568 C107.713032,54.2939645 98.2972294,59.7233609 89.0817632,65.3538462 C79.6659607,59.9244497 70.2501583,54.2939645 60.8343558,48.864568 L60.8343558,16.2881893 C70.2501583,10.8587929 79.6659607,5.42939645 89.0817632,0 C98.2972294,5.42939645 107.713032,10.8587929 117.128834,16.2881893 Z" id="Shape-Copy"></path>
                </g>
            </g>
            <g id="Group-2-Copy-6" transform="translate(273.000000, 159.000000)">
                <g id="Group" transform="translate(30.871166, 0.000000)">
                    <path d="M56.2944785,16.2881893 L56.2944785,48.864568 C46.8786761,54.2939645 37.4628736,59.7233609 28.2474074,65.3538462 C18.8316049,59.9244497 9.41580246,54.2939645 0,48.864568 L0,16.2881893 C9.41580246,10.8587929 18.8316049,5.42939645 28.2474074,0 C37.4628736,5.42939645 46.8786761,10.8587929 56.2944785,16.2881893 Z" id="Shape"></path>
                    <path d="M117.128834,16.2881893 L117.128834,48.864568 C107.713032,54.2939645 98.2972294,59.7233609 89.0817632,65.3538462 C79.6659607,59.9244497 70.2501583,54.2939645 60.8343558,48.864568 L60.8343558,16.2881893 C70.2501583,10.8587929 79.6659607,5.42939645 89.0817632,0 C98.2972294,5.42939645 107.713032,10.8587929 117.128834,16.2881893 Z" id="Shape-Copy"></path>
                </g>
                <g id="Group-Copy" transform="translate(0.000000, 52.646154)">
                    <path d="M56.2944785,16.2881893 L56.2944785,48.864568 C46.8786761,54.2939645 37.4628736,59.7233609 28.2474074,65.3538462 C18.8316049,59.9244497 9.41580246,54.2939645 0,48.864568 L0,16.2881893 C9.41580246,10.8587929 18.8316049,5.42939645 28.2474074,0 C37.4628736,5.42939645 46.8786761,10.8587929 56.2944785,16.2881893 Z" id="Shape"></path>
                    <path d="M117.128834,16.2881893 L117.128834,48.864568 C107.713032,54.2939645 98.2972294,59.7233609 89.0817632,65.3538462 C79.6659607,59.9244497 70.2501583,54.2939645 60.8343558,48.864568 L60.8343558,16.2881893 C70.2501583,10.8587929 79.6659607,5.42939645 89.0817632,0 C98.2972294,5.42939645 107.713032,10.8587929 117.128834,16.2881893 Z" id="Shape-Copy"></path>
                </g>
            </g>
            <g id="Group-2-Copy-8" transform="translate(303.000000, 316.000000)">
                <g id="Group" transform="translate(30.871166, 0.000000)">
                    <path d="M56.2944785,16.2881893 L56.2944785,48.864568 C46.8786761,54.2939645 37.4628736,59.7233609 28.2474074,65.3538462 C18.8316049,59.9244497 9.41580246,54.2939645 0,48.864568 L0,16.2881893 C9.41580246,10.8587929 18.8316049,5.42939645 28.2474074,0 C37.4628736,5.42939645 46.8786761,10.8587929 56.2944785,16.2881893 Z" id="Shape"></path>
                    <path d="M117.128834,16.2881893 L117.128834,48.864568 C107.713032,54.2939645 98.2972294,59.7233609 89.0817632,65.3538462 C79.6659607,59.9244497 70.2501583,54.2939645 60.8343558,48.864568 L60.8343558,16.2881893 C70.2501583,10.8587929 79.6659607,5.42939645 89.0817632,0 C98.2972294,5.42939645 107.713032,10.8587929 117.128834,16.2881893 Z" id="Shape-Copy"></path>
                </g>
                <g id="Group-Copy" transform="translate(0.000000, 52.646154)">
                    <path d="M56.2944785,16.2881893 L56.2944785,48.864568 C46.8786761,54.2939645 37.4628736,59.7233609 28.2474074,65.3538462 C18.8316049,59.9244497 9.41580246,54.2939645 0,48.864568 L0,16.2881893 C9.41580246,10.8587929 18.8316049,5.42939645 28.2474074,0 C37.4628736,5.42939645 46.8786761,10.8587929 56.2944785,16.2881893 Z" id="Shape"></path>
                    <path d="M117.128834,16.2881893 L117.128834,48.864568 C107.713032,54.2939645 98.2972294,59.7233609 89.0817632,65.3538462 C79.6659607,59.9244497 70.2501583,54.2939645 60.8343558,48.864568 L60.8343558,16.2881893 C70.2501583,10.8587929 79.6659607,5.42939645 89.0817632,0 C98.2972294,5.42939645 107.713032,10.8587929 117.128834,16.2881893 Z" id="Shape-Copy"></path>
                </g>
            </g>
            <g id="Group-2-Copy-15" transform="translate(699.000000, 264.000000)">
                <g id="Group" transform="translate(30.871166, 0.000000)">
                    <path d="M56.2944785,16.2881893 L56.2944785,48.864568 C46.8786761,54.2939645 37.4628736,59.7233609 28.2474074,65.3538462 C18.8316049,59.9244497 9.41580246,54.2939645 0,48.864568 L0,16.2881893 C9.41580246,10.8587929 18.8316049,5.42939645 28.2474074,0 C37.4628736,5.42939645 46.8786761,10.8587929 56.2944785,16.2881893 Z" id="Shape"></path>
                    <path d="M117.128834,16.2881893 L117.128834,48.864568 C107.713032,54.2939645 98.2972294,59.7233609 89.0817632,65.3538462 C79.6659607,59.9244497 70.2501583,54.2939645 60.8343558,48.864568 L60.8343558,16.2881893 C70.2501583,10.8587929 79.6659607,5.42939645 89.0817632,0 C98.2972294,5.42939645 107.713032,10.8587929 117.128834,16.2881893 Z" id="Shape-Copy"></path>
                </g>
                <g id="Group-Copy" transform="translate(0.000000, 52.646154)">
                    <path d="M56.2944785,16.2881893 L56.2944785,48.864568 C46.8786761,54.2939645 37.4628736,59.7233609 28.2474074,65.3538462 C18.8316049,59.9244497 9.41580246,54.2939645 0,48.864568 L0,16.2881893 C9.41580246,10.8587929 18.8316049,5.42939645 28.2474074,0 C37.4628736,5.42939645 46.8786761,10.8587929 56.2944785,16.2881893 Z" id="Shape"></path>
                    <path d="M117.128834,16.2881893 L117.128834,48.864568 C107.713032,54.2939645 98.2972294,59.7233609 89.0817632,65.3538462 C79.6659607,59.9244497 70.2501583,54.2939645 60.8343558,48.864568 L60.8343558,16.2881893 C70.2501583,10.8587929 79.6659607,5.42939645 89.0817632,0 C98.2972294,5.42939645 107.713032,10.8587929 117.128834,16.2881893 Z" id="Shape-Copy"></path>
                </g>
            </g>
            <g id="Group-2-Copy-10" transform="translate(456.000000, 263.000000)">
                <g id="Group" transform="translate(30.871166, 0.000000)">
                    <path d="M56.2944785,16.2881893 L56.2944785,48.864568 C46.8786761,54.2939645 37.4628736,59.7233609 28.2474074,65.3538462 C18.8316049,59.9244497 9.41580246,54.2939645 0,48.864568 L0,16.2881893 C9.41580246,10.8587929 18.8316049,5.42939645 28.2474074,0 C37.4628736,5.42939645 46.8786761,10.8587929 56.2944785,16.2881893 Z" id="Shape"></path>
                    <path d="M117.128834,16.2881893 L117.128834,48.864568 C107.713032,54.2939645 98.2972294,59.7233609 89.0817632,65.3538462 C79.6659607,59.9244497 70.2501583,54.2939645 60.8343558,48.864568 L60.8343558,16.2881893 C70.2501583,10.8587929 79.6659607,5.42939645 89.0817632,0 C98.2972294,5.42939645 107.713032,10.8587929 117.128834,16.2881893 Z" id="Shape-Copy"></path>
                </g>
                <g id="Group-Copy" transform="translate(0.000000, 52.646154)">
                    <path d="M56.2944785,16.2881893 L56.2944785,48.864568 C46.8786761,54.2939645 37.4628736,59.7233609 28.2474074,65.3538462 C18.8316049,59.9244497 9.41580246,54.2939645 0,48.864568 L0,16.2881893 C9.41580246,10.8587929 18.8316049,5.42939645 28.2474074,0 C37.4628736,5.42939645 46.8786761,10.8587929 56.2944785,16.2881893 Z" id="Shape"></path>
                    <path d="M117.128834,16.2881893 L117.128834,48.864568 C107.713032,54.2939645 98.2972294,59.7233609 89.0817632,65.3538462 C79.6659607,59.9244497 70.2501583,54.2939645 60.8343558,48.864568 L60.8343558,16.2881893 C70.2501583,10.8587929 79.6659607,5.42939645 89.0817632,0 C98.2972294,5.42939645 107.713032,10.8587929 117.128834,16.2881893 Z" id="Shape-Copy"></path>
                </g>
            </g>
            <g id="Group-2-Copy-20" transform="translate(942.000000, 264.000000)">
                <g id="Group" transform="translate(30.812500, 0.000000)">
                    <path d="M56.1875,16.2881893 L56.1875,48.864568 C46.7895907,54.2939645 37.3916815,59.7233609 28.1937278,65.3538462 C18.7958185,59.9244497 9.39790925,54.2939645 0,48.864568 L0,16.2881893 C9.39790925,10.8587929 18.7958185,5.42939645 28.1937278,0 C37.3916815,5.42939645 46.7895907,10.8587929 56.1875,16.2881893 Z" id="Shape"></path>
                </g>
                <g id="Group-Copy" transform="translate(0.000000, 52.646154)">
                    <path d="M56.1875,16.2881893 L56.1875,48.864568 C46.7895907,54.2939645 37.3916815,59.7233609 28.1937278,65.3538462 C18.7958185,59.9244497 9.39790925,54.2939645 0,48.864568 L0,16.2881893 C9.39790925,10.8587929 18.7958185,5.42939645 28.1937278,0 C37.3916815,5.42939645 46.7895907,10.8587929 56.1875,16.2881893 Z" id="Shape"></path>
                </g>
            </g>
            <g id="Group-2-Copy-16" transform="translate(851.000000, 212.000000)">
                <g id="Group" transform="translate(30.871166, 0.000000)">
                    <path d="M56.2944785,16.2881893 L56.2944785,48.864568 C46.8786761,54.2939645 37.4628736,59.7233609 28.2474074,65.3538462 C18.8316049,59.9244497 9.41580246,54.2939645 0,48.864568 L0,16.2881893 C9.41580246,10.8587929 18.8316049,5.42939645 28.2474074,0 C37.4628736,5.42939645 46.8786761,10.8587929 56.2944785,16.2881893 Z" id="Shape"></path>
                    <path d="M117.128834,16.2881893 L117.128834,48.864568 C107.713032,54.2939645 98.2972294,59.7233609 89.0817632,65.3538462 C79.6659607,59.9244497 70.2501583,54.2939645 60.8343558,48.864568 L60.8343558,16.2881893 C70.2501583,10.8587929 79.6659607,5.42939645 89.0817632,0 C98.2972294,5.42939645 107.713032,10.8587929 117.128834,16.2881893 Z" id="Shape-Copy"></path>
                </g>
                <g id="Group-Copy" transform="translate(0.000000, 52.646154)">
                    <path d="M56.2944785,16.2881893 L56.2944785,48.864568 C46.8786761,54.2939645 37.4628736,59.7233609 28.2474074,65.3538462 C18.8316049,59.9244497 9.41580246,54.2939645 0,48.864568 L0,16.2881893 C9.41580246,10.8587929 18.8316049,5.42939645 28.2474074,0 C37.4628736,5.42939645 46.8786761,10.8587929 56.2944785,16.2881893 Z" id="Shape"></path>
                    <path d="M117.128834,16.2881893 L117.128834,48.864568 C107.713032,54.2939645 98.2972294,59.7233609 89.0817632,65.3538462 C79.6659607,59.9244497 70.2501583,54.2939645 60.8343558,48.864568 L60.8343558,16.2881893 C70.2501583,10.8587929 79.6659607,5.42939645 89.0817632,0 C98.2972294,5.42939645 107.713032,10.8587929 117.128834,16.2881893 Z" id="Shape-Copy"></path>
                </g>
            </g>
            <g id="Group-2-Copy-5" transform="translate(244.000000, 2.000000)">
                <g id="Group" transform="translate(30.871166, 0.000000)">
                    <path d="M56.2944785,16.2881893 L56.2944785,48.864568 C46.8786761,54.2939645 37.4628736,59.7233609 28.2474074,65.3538462 C18.8316049,59.9244497 9.41580246,54.2939645 0,48.864568 L0,16.2881893 C9.41580246,10.8587929 18.8316049,5.42939645 28.2474074,0 C37.4628736,5.42939645 46.8786761,10.8587929 56.2944785,16.2881893 Z" id="Shape"></path>
                    <path d="M117.128834,16.2881893 L117.128834,48.864568 C107.713032,54.2939645 98.2972294,59.7233609 89.0817632,65.3538462 C79.6659607,59.9244497 70.2501583,54.2939645 60.8343558,48.864568 L60.8343558,16.2881893 C70.2501583,10.8587929 79.6659607,5.42939645 89.0817632,0 C98.2972294,5.42939645 107.713032,10.8587929 117.128834,16.2881893 Z" id="Shape-Copy"></path>
                </g>
                <g id="Group-Copy" transform="translate(0.000000, 52.646154)">
                    <path d="M56.2944785,16.2881893 L56.2944785,48.864568 C46.8786761,54.2939645 37.4628736,59.7233609 28.2474074,65.3538462 C18.8316049,59.9244497 9.41580246,54.2939645 0,48.864568 L0,16.2881893 C9.41580246,10.8587929 18.8316049,5.42939645 28.2474074,0 C37.4628736,5.42939645 46.8786761,10.8587929 56.2944785,16.2881893 Z" id="Shape"></path>
                    <path d="M117.128834,16.2881893 L117.128834,48.864568 C107.713032,54.2939645 98.2972294,59.7233609 89.0817632,65.3538462 C79.6659607,59.9244497 70.2501583,54.2939645 60.8343558,48.864568 L60.8343558,16.2881893 C70.2501583,10.8587929 79.6659607,5.42939645 89.0817632,0 C98.2972294,5.42939645 107.713032,10.8587929 117.128834,16.2881893 Z" id="Shape-Copy"></path>
                </g>
            </g>
            <g id="Group-2-Copy-7" transform="translate(335.000000, 54.000000)">
                <g id="Group" transform="translate(30.871166, 0.000000)">
                    <path d="M56.2944785,16.2881893 L56.2944785,48.864568 C46.8786761,54.2939645 37.4628736,59.7233609 28.2474074,65.3538462 C18.8316049,59.9244497 9.41580246,54.2939645 0,48.864568 L0,16.2881893 C9.41580246,10.8587929 18.8316049,5.42939645 28.2474074,0 C37.4628736,5.42939645 46.8786761,10.8587929 56.2944785,16.2881893 Z" id="Shape"></path>
                    <path d="M117.128834,16.2881893 L117.128834,48.864568 C107.713032,54.2939645 98.2972294,59.7233609 89.0817632,65.3538462 C79.6659607,59.9244497 70.2501583,54.2939645 60.8343558,48.864568 L60.8343558,16.2881893 C70.2501583,10.8587929 79.6659607,5.42939645 89.0817632,0 C98.2972294,5.42939645 107.713032,10.8587929 117.128834,16.2881893 Z" id="Shape-Copy"></path>
                </g>
                <g id="Group-Copy" transform="translate(0.000000, 52.646154)">
                    <path d="M56.2944785,16.2881893 L56.2944785,48.864568 C46.8786761,54.2939645 37.4628736,59.7233609 28.2474074,65.3538462 C18.8316049,59.9244497 9.41580246,54.2939645 0,48.864568 L0,16.2881893 C9.41580246,10.8587929 18.8316049,5.42939645 28.2474074,0 C37.4628736,5.42939645 46.8786761,10.8587929 56.2944785,16.2881893 Z" id="Shape"></path>
                    <path d="M117.128834,16.2881893 L117.128834,48.864568 C107.713032,54.2939645 98.2972294,59.7233609 89.0817632,65.3538462 C79.6659607,59.9244497 70.2501583,54.2939645 60.8343558,48.864568 L60.8343558,16.2881893 C70.2501583,10.8587929 79.6659607,5.42939645 89.0817632,0 C98.2972294,5.42939645 107.713032,10.8587929 117.128834,16.2881893 Z" id="Shape-Copy"></path>
                </g>
            </g>
            <g id="Group-2-Copy-9" transform="translate(365.000000, 211.000000)">
                <g id="Group" transform="translate(30.871166, 0.000000)">
                    <path d="M56.2944785,16.2881893 L56.2944785,48.864568 C46.8786761,54.2939645 37.4628736,59.7233609 28.2474074,65.3538462 C18.8316049,59.9244497 9.41580246,54.2939645 0,48.864568 L0,16.2881893 C9.41580246,10.8587929 18.8316049,5.42939645 28.2474074,0 C37.4628736,5.42939645 46.8786761,10.8587929 56.2944785,16.2881893 Z" id="Shape"></path>
                    <path d="M117.128834,16.2881893 L117.128834,48.864568 C107.713032,54.2939645 98.2972294,59.7233609 89.0817632,65.3538462 C79.6659607,59.9244497 70.2501583,54.2939645 60.8343558,48.864568 L60.8343558,16.2881893 C70.2501583,10.8587929 79.6659607,5.42939645 89.0817632,0 C98.2972294,5.42939645 107.713032,10.8587929 117.128834,16.2881893 Z" id="Shape-Copy"></path>
                </g>
                <g id="Group-Copy" transform="translate(0.000000, 52.646154)">
                    <path d="M56.2944785,16.2881893 L56.2944785,48.864568 C46.8786761,54.2939645 37.4628736,59.7233609 28.2474074,65.3538462 C18.8316049,59.9244497 9.41580246,54.2939645 0,48.864568 L0,16.2881893 C9.41580246,10.8587929 18.8316049,5.42939645 28.2474074,0 C37.4628736,5.42939645 46.8786761,10.8587929 56.2944785,16.2881893 Z" id="Shape"></path>
                    <path d="M117.128834,16.2881893 L117.128834,48.864568 C107.713032,54.2939645 98.2972294,59.7233609 89.0817632,65.3538462 C79.6659607,59.9244497 70.2501583,54.2939645 60.8343558,48.864568 L60.8343558,16.2881893 C70.2501583,10.8587929 79.6659607,5.42939645 89.0817632,0 C98.2972294,5.42939645 107.713032,10.8587929 117.128834,16.2881893 Z" id="Shape-Copy"></path>
                </g>
            </g>
            <g id="Group-2-Copy-17" transform="translate(760.000000, 159.000000)">
                <g id="Group" transform="translate(30.871166, 0.000000)">
                    <path d="M56.2944785,16.2881893 L56.2944785,48.864568 C46.8786761,54.2939645 37.4628736,59.7233609 28.2474074,65.3538462 C18.8316049,59.9244497 9.41580246,54.2939645 0,48.864568 L0,16.2881893 C9.41580246,10.8587929 18.8316049,5.42939645 28.2474074,0 C37.4628736,5.42939645 46.8786761,10.8587929 56.2944785,16.2881893 Z" id="Shape"></path>
                    <path d="M117.128834,16.2881893 L117.128834,48.864568 C107.713032,54.2939645 98.2972294,59.7233609 89.0817632,65.3538462 C79.6659607,59.9244497 70.2501583,54.2939645 60.8343558,48.864568 L60.8343558,16.2881893 C70.2501583,10.8587929 79.6659607,5.42939645 89.0817632,0 C98.2972294,5.42939645 107.713032,10.8587929 117.128834,16.2881893 Z" id="Shape-Copy"></path>
                </g>
                <g id="Group-Copy" transform="translate(0.000000, 52.646154)">
                    <path d="M56.2944785,16.2881893 L56.2944785,48.864568 C46.8786761,54.2939645 37.4628736,59.7233609 28.2474074,65.3538462 C18.8316049,59.9244497 9.41580246,54.2939645 0,48.864568 L0,16.2881893 C9.41580246,10.8587929 18.8316049,5.42939645 28.2474074,0 C37.4628736,5.42939645 46.8786761,10.8587929 56.2944785,16.2881893 Z" id="Shape"></path>
                    <path d="M117.128834,16.2881893 L117.128834,48.864568 C107.713032,54.2939645 98.2972294,59.7233609 89.0817632,65.3538462 C79.6659607,59.9244497 70.2501583,54.2939645 60.8343558,48.864568 L60.8343558,16.2881893 C70.2501583,10.8587929 79.6659607,5.42939645 89.0817632,0 C98.2972294,5.42939645 107.713032,10.8587929 117.128834,16.2881893 Z" id="Shape-Copy"></path>
                </g>
            </g>
            <g id="Group-2-Copy-12" transform="translate(640.000000, 53.000000)">
                <g id="Group" transform="translate(30.871166, 0.000000)">
                    <path d="M56.2944785,16.2881893 L56.2944785,48.864568 C46.8786761,54.2939645 37.4628736,59.7233609 28.2474074,65.3538462 C18.8316049,59.9244497 9.41580246,54.2939645 0,48.864568 L0,16.2881893 C9.41580246,10.8587929 18.8316049,5.42939645 28.2474074,0 C37.4628736,5.42939645 46.8786761,10.8587929 56.2944785,16.2881893 Z" id="Shape"></path>
                    <path d="M117.128834,16.2881893 L117.128834,48.864568 C107.713032,54.2939645 98.2972294,59.7233609 89.0817632,65.3538462 C79.6659607,59.9244497 70.2501583,54.2939645 60.8343558,48.864568 L60.8343558,16.2881893 C70.2501583,10.8587929 79.6659607,5.42939645 89.0817632,0 C98.2972294,5.42939645 107.713032,10.8587929 117.128834,16.2881893 Z" id="Shape-Copy"></path>
                </g>
                <g id="Group-Copy" transform="translate(0.000000, 52.646154)">
                    <path d="M56.2944785,16.2881893 L56.2944785,48.864568 C46.8786761,54.2939645 37.4628736,59.7233609 28.2474074,65.3538462 C18.8316049,59.9244497 9.41580246,54.2939645 0,48.864568 L0,16.2881893 C9.41580246,10.8587929 18.8316049,5.42939645 28.2474074,0 C37.4628736,5.42939645 46.8786761,10.8587929 56.2944785,16.2881893 Z" id="Shape"></path>
                    <path d="M117.128834,16.2881893 L117.128834,48.864568 C107.713032,54.2939645 98.2972294,59.7233609 89.0817632,65.3538462 C79.6659607,59.9244497 70.2501583,54.2939645 60.8343558,48.864568 L60.8343558,16.2881893 C70.2501583,10.8587929 79.6659607,5.42939645 89.0817632,0 C98.2972294,5.42939645 107.713032,10.8587929 117.128834,16.2881893 Z" id="Shape-Copy"></path>
                </g>
            </g>
            <g id="Group-2-Copy-18" transform="translate(549.000000, 0.000000)">
                <g id="Group" transform="translate(30.871166, 0.000000)">
                    <path d="M56.2944785,16.2881893 L56.2944785,48.864568 C46.8786761,54.2939645 37.4628736,59.7233609 28.2474074,65.3538462 C18.8316049,59.9244497 9.41580246,54.2939645 0,48.864568 L0,16.2881893 C9.41580246,10.8587929 18.8316049,5.42939645 28.2474074,0 C37.4628736,5.42939645 46.8786761,10.8587929 56.2944785,16.2881893 Z" id="Shape"></path>
                    <path d="M117.128834,16.2881893 L117.128834,48.864568 C107.713032,54.2939645 98.2972294,59.7233609 89.0817632,65.3538462 C79.6659607,59.9244497 70.2501583,54.2939645 60.8343558,48.864568 L60.8343558,16.2881893 C70.2501583,10.8587929 79.6659607,5.42939645 89.0817632,0 C98.2972294,5.42939645 107.713032,10.8587929 117.128834,16.2881893 Z" id="Shape-Copy"></path>
                </g>
                <g id="Group-Copy" transform="translate(0.000000, 52.646154)">
                    <path d="M56.2944785,16.2881893 L56.2944785,48.864568 C46.8786761,54.2939645 37.4628736,59.7233609 28.2474074,65.3538462 C18.8316049,59.9244497 9.41580246,54.2939645 0,48.864568 L0,16.2881893 C9.41580246,10.8587929 18.8316049,5.42939645 28.2474074,0 C37.4628736,5.42939645 46.8786761,10.8587929 56.2944785,16.2881893 Z" id="Shape"></path>
                    <path d="M117.128834,16.2881893 L117.128834,48.864568 C107.713032,54.2939645 98.2972294,59.7233609 89.0817632,65.3538462 C79.6659607,59.9244497 70.2501583,54.2939645 60.8343558,48.864568 L60.8343558,16.2881893 C70.2501583,10.8587929 79.6659607,5.42939645 89.0817632,0 C98.2972294,5.42939645 107.713032,10.8587929 117.128834,16.2881893 Z" id="Shape-Copy"></path>
                </g>
            </g>
            <g id="Group-2-Copy-11" transform="translate(517.000000, 158.000000)">
                <g id="Group" transform="translate(30.871166, 0.000000)">
                    <path d="M56.2944785,16.2881893 L56.2944785,48.864568 C46.8786761,54.2939645 37.4628736,59.7233609 28.2474074,65.3538462 C18.8316049,59.9244497 9.41580246,54.2939645 0,48.864568 L0,16.2881893 C9.41580246,10.8587929 18.8316049,5.42939645 28.2474074,0 C37.4628736,5.42939645 46.8786761,10.8587929 56.2944785,16.2881893 Z" id="Shape"></path>
                    <path d="M117.128834,16.2881893 L117.128834,48.864568 C107.713032,54.2939645 98.2972294,59.7233609 89.0817632,65.3538462 C79.6659607,59.9244497 70.2501583,54.2939645 60.8343558,48.864568 L60.8343558,16.2881893 C70.2501583,10.8587929 79.6659607,5.42939645 89.0817632,0 C98.2972294,5.42939645 107.713032,10.8587929 117.128834,16.2881893 Z" id="Shape-Copy"></path>
                </g>
                <g id="Group-Copy" transform="translate(0.000000, 52.646154)">
                    <path d="M56.2944785,16.2881893 L56.2944785,48.864568 C46.8786761,54.2939645 37.4628736,59.7233609 28.2474074,65.3538462 C18.8316049,59.9244497 9.41580246,54.2939645 0,48.864568 L0,16.2881893 C9.41580246,10.8587929 18.8316049,5.42939645 28.2474074,0 C37.4628736,5.42939645 46.8786761,10.8587929 56.2944785,16.2881893 Z" id="Shape"></path>
                    <path d="M117.128834,16.2881893 L117.128834,48.864568 C107.713032,54.2939645 98.2972294,59.7233609 89.0817632,65.3538462 C79.6659607,59.9244497 70.2501583,54.2939645 60.8343558,48.864568 L60.8343558,16.2881893 C70.2501583,10.8587929 79.6659607,5.42939645 89.0817632,0 C98.2972294,5.42939645 107.713032,10.8587929 117.128834,16.2881893 Z" id="Shape-Copy"></path>
                </g>
            </g>
            <g id="Group-2-Copy-14" transform="translate(639.000000, 158.000000)">
                <g id="Group" transform="translate(30.871166, 0.000000)">
                    <path d="M56.2944785,16.2881893 L56.2944785,48.864568 C46.8786761,54.2939645 37.4628736,59.7233609 28.2474074,65.3538462 C18.8316049,59.9244497 9.41580246,54.2939645 0,48.864568 L0,16.2881893 C9.41580246,10.8587929 18.8316049,5.42939645 28.2474074,0 C37.4628736,5.42939645 46.8786761,10.8587929 56.2944785,16.2881893 Z" id="Shape"></path>
                    <path d="M117.128834,16.2881893 L117.128834,48.864568 C107.713032,54.2939645 98.2972294,59.7233609 89.0817632,65.3538462 C79.6659607,59.9244497 70.2501583,54.2939645 60.8343558,48.864568 L60.8343558,16.2881893 C70.2501583,10.8587929 79.6659607,5.42939645 89.0817632,0 C98.2972294,5.42939645 107.713032,10.8587929 117.128834,16.2881893 Z" id="Shape-Copy"></path>
                </g>
                <g id="Group-Copy" transform="translate(0.000000, 52.646154)">
                    <path d="M56.2944785,16.2881893 L56.2944785,48.864568 C46.8786761,54.2939645 37.4628736,59.7233609 28.2474074,65.3538462 C18.8316049,59.9244497 9.41580246,54.2939645 0,48.864568 L0,16.2881893 C9.41580246,10.8587929 18.8316049,5.42939645 28.2474074,0 C37.4628736,5.42939645 46.8786761,10.8587929 56.2944785,16.2881893 Z" id="Shape"></path>
                    <path d="M117.128834,16.2881893 L117.128834,48.864568 C107.713032,54.2939645 98.2972294,59.7233609 89.0817632,65.3538462 C79.6659607,59.9244497 70.2501583,54.2939645 60.8343558,48.864568 L60.8343558,16.2881893 C70.2501583,10.8587929 79.6659607,5.42939645 89.0817632,0 C98.2972294,5.42939645 107.713032,10.8587929 117.128834,16.2881893 Z" id="Shape-Copy"></path>
                </g>
            </g>
            <g id="Group-2-Copy-19" transform="translate(789.000000, 317.000000)">
                <g id="Group" transform="translate(30.871166, 0.000000)">
                    <path d="M56.2944785,16.2881893 L56.2944785,48.864568 C46.8786761,54.2939645 37.4628736,59.7233609 28.2474074,65.3538462 C18.8316049,59.9244497 9.41580246,54.2939645 0,48.864568 L0,16.2881893 C9.41580246,10.8587929 18.8316049,5.42939645 28.2474074,0 C37.4628736,5.42939645 46.8786761,10.8587929 56.2944785,16.2881893 Z" id="Shape"></path>
                    <path d="M117.128834,16.2881893 L117.128834,48.864568 C107.713032,54.2939645 98.2972294,59.7233609 89.0817632,65.3538462 C79.6659607,59.9244497 70.2501583,54.2939645 60.8343558,48.864568 L60.8343558,16.2881893 C70.2501583,10.8587929 79.6659607,5.42939645 89.0817632,0 C98.2972294,5.42939645 107.713032,10.8587929 117.128834,16.2881893 Z" id="Shape-Copy"></path>
                </g>
                <g id="Group-Copy" transform="translate(0.000000, 52.646154)">
                    <path d="M56.2944785,16.2881893 L56.2944785,48.864568 C46.8786761,54.2939645 37.4628736,59.7233609 28.2474074,65.3538462 C18.8316049,59.9244497 9.41580246,54.2939645 0,48.864568 L0,16.2881893 C9.41580246,10.8587929 18.8316049,5.42939645 28.2474074,0 C37.4628736,5.42939645 46.8786761,10.8587929 56.2944785,16.2881893 Z" id="Shape"></path>
                    <path d="M117.128834,16.2881893 L117.128834,48.864568 C107.713032,54.2939645 98.2972294,59.7233609 89.0817632,65.3538462 C79.6659607,59.9244497 70.2501583,54.2939645 60.8343558,48.864568 L60.8343558,16.2881893 C70.2501583,10.8587929 79.6659607,5.42939645 89.0817632,0 C98.2972294,5.42939645 107.713032,10.8587929 117.128834,16.2881893 Z" id="Shape-Copy"></path>
                </g>
            </g>
            <g id="Group-2-Copy-13" transform="translate(792.000000, 0.000000)">
                <g id="Group" transform="translate(30.871166, 0.000000)">
                    <path d="M56.2944785,16.2881893 L56.2944785,48.864568 C46.8786761,54.2939645 37.4628736,59.7233609 28.2474074,65.3538462 C18.8316049,59.9244497 9.41580246,54.2939645 0,48.864568 L0,16.2881893 C9.41580246,10.8587929 18.8316049,5.42939645 28.2474074,0 C37.4628736,5.42939645 46.8786761,10.8587929 56.2944785,16.2881893 Z" id="Shape"></path>
                    <path d="M117.128834,16.2881893 L117.128834,48.864568 C107.713032,54.2939645 98.2972294,59.7233609 89.0817632,65.3538462 C79.6659607,59.9244497 70.2501583,54.2939645 60.8343558,48.864568 L60.8343558,16.2881893 C70.2501583,10.8587929 79.6659607,5.42939645 89.0817632,0 C98.2972294,5.42939645 107.713032,10.8587929 117.128834,16.2881893 Z" id="Shape-Copy"></path>
                </g>
                <g id="Group-Copy" transform="translate(0.000000, 52.646154)">
                    <path d="M56.2944785,16.2881893 L56.2944785,48.864568 C46.8786761,54.2939645 37.4628736,59.7233609 28.2474074,65.3538462 C18.8316049,59.9244497 9.41580246,54.2939645 0,48.864568 L0,16.2881893 C9.41580246,10.8587929 18.8316049,5.42939645 28.2474074,0 C37.4628736,5.42939645 46.8786761,10.8587929 56.2944785,16.2881893 Z" id="Shape"></path>
                    <path d="M117.128834,16.2881893 L117.128834,48.864568 C107.713032,54.2939645 98.2972294,59.7233609 89.0817632,65.3538462 C79.6659607,59.9244497 70.2501583,54.2939645 60.8343558,48.864568 L60.8343558,16.2881893 C70.2501583,10.8587929 79.6659607,5.42939645 89.0817632,0 C98.2972294,5.42939645 107.713032,10.8587929 117.128834,16.2881893 Z" id="Shape-Copy"></path>
                </g>
            </g>
            <g id="Group-2-Copy-3" transform="translate(0.000000, 55.000000)">
                <g id="Group">
                    <path d="M56.2325581,16.2881893 L56.2325581,48.864568 C46.8271125,54.2939645 37.4216668,59.7233609 28.216337,65.3538462 C18.8108913,59.9244497 9.40544567,54.2939645 0,48.864568 L0,16.2881893 C9.40544567,10.8587929 18.8108913,5.42939645 28.216337,0 C37.4216668,5.42939645 46.8271125,10.8587929 56.2325581,16.2881893 Z" id="Shape"></path>
                    <path d="M117,16.2881893 L117,48.864568 C107.594554,54.2939645 98.1891087,59.7233609 88.9837789,65.3538462 C79.5783332,59.9244497 70.1728875,54.2939645 60.7674419,48.864568 L60.7674419,16.2881893 C70.1728875,10.8587929 79.5783332,5.42939645 88.9837789,0 C98.1891087,5.42939645 107.594554,10.8587929 117,16.2881893 Z" id="Shape-Copy"></path>
                </g>
                <g id="Group-Copy" transform="translate(29.023256, 52.646154)">
                    <path d="M56.2325581,16.2881893 L56.2325581,48.864568 C46.8271125,54.2939645 37.4216668,59.7233609 28.216337,65.3538462 C18.8108913,59.9244497 9.40544567,54.2939645 0,48.864568 L0,16.2881893 C9.40544567,10.8587929 18.8108913,5.42939645 28.216337,0 C37.4216668,5.42939645 46.8271125,10.8587929 56.2325581,16.2881893 Z" id="Shape-Copy"></path>
                </g>
            </g>
            <g id="Group-2-Copy-4" transform="translate(58.000000, 213.000000)">
                <g id="Group" transform="translate(92.727273, 0.000000)">
                    <path d="M56.3636364,16.2668668 L56.3636364,48.8006004 C46.9362666,54.2228893 37.5088968,59.6451782 28.2821093,65.2682927 C18.8547396,59.8460038 9.42736978,54.2228893 0,48.8006004 L0,16.2668668 C9.42736978,10.8445779 18.8547396,5.42228893 28.2821093,0 C37.5088968,5.42228893 46.9362666,10.8445779 56.3636364,16.2668668 Z" id="Shape"></path>
                    <path d="M117.272727,16.2668668 L117.272727,48.8006004 C107.845357,54.2228893 98.4179877,59.6451782 89.1912003,65.2682927 C79.7638305,59.8460038 70.3364607,54.2228893 60.9090909,48.8006004 L60.9090909,16.2668668 C70.3364607,10.8445779 79.7638305,5.42228893 89.1912003,0 C98.4179877,5.42228893 107.845357,10.8445779 117.272727,16.2668668 Z" id="Shape-Copy"></path>
                </g>
                <g id="Group-Copy-2" transform="translate(30.909091, 105.154472)">
                    <path d="M56.3636364,16.2668668 L56.3636364,48.8006004 C46.9362666,54.2228893 37.5088968,59.6451782 28.2821093,65.2682927 C18.8547396,59.8460038 9.42736978,54.2228893 0,48.8006004 L0,16.2668668 C9.42736978,10.8445779 18.8547396,5.42228893 28.2821093,0 C37.5088968,5.42228893 46.9362666,10.8445779 56.3636364,16.2668668 Z" id="Shape"></path>
                    <path d="M117.272727,16.2668668 L117.272727,48.8006004 C107.845357,54.2228893 98.4179877,59.6451782 89.1912003,65.2682927 C79.7638305,59.8460038 70.3364607,54.2228893 60.9090909,48.8006004 L60.9090909,16.2668668 C70.3364607,10.8445779 79.7638305,5.42228893 89.1912003,0 C98.4179877,5.42228893 107.845357,10.8445779 117.272727,16.2668668 Z" id="Shape-Copy"></path>
                </g>
                <g id="Group-Copy" transform="translate(60.909091, 52.577236)">
                    <path d="M56.3636364,16.2668668 L56.3636364,48.8006004 C46.9362666,54.2228893 37.5088968,59.6451782 28.2821093,65.2682927 C18.8547396,59.8460038 9.42736978,54.2228893 0,48.8006004 L0,16.2668668 C9.42736978,10.8445779 18.8547396,5.42228893 28.2821093,0 C37.5088968,5.42228893 46.9362666,10.8445779 56.3636364,16.2668668 Z" id="Shape"></path>
                    <path d="M117.272727,16.2668668 L117.272727,48.8006004 C107.845357,54.2228893 98.4179877,59.6451782 89.1912003,65.2682927 C79.7638305,59.8460038 70.3364607,54.2228893 60.9090909,48.8006004 L60.9090909,16.2668668 C70.3364607,10.8445779 79.7638305,5.42228893 89.1912003,0 C98.4179877,5.42228893 107.845357,10.8445779 117.272727,16.2668668 Z" id="Shape-Copy"></path>
                </g>
                <g id="Group-Copy-3" transform="translate(0.000000, 157.731707)">
                    <path d="M56.3636364,16.2668668 L56.3636364,48.8006004 C46.9362666,54.2228893 37.5088968,59.6451782 28.2821093,65.2682927 C18.8547396,59.8460038 9.42736978,54.2228893 0,48.8006004 L0,16.2668668 C9.42736978,10.8445779 18.8547396,5.42228893 28.2821093,0 C37.5088968,5.42228893 46.9362666,10.8445779 56.3636364,16.2668668 Z" id="Shape"></path>
                    <path d="M117.272727,16.2668668 L117.272727,48.8006004 C107.845357,54.2228893 98.4179877,59.6451782 89.1912003,65.2682927 C79.7638305,59.8460038 70.3364607,54.2228893 60.9090909,48.8006004 L60.9090909,16.2668668 C70.3364607,10.8445779 79.7638305,5.42228893 89.1912003,0 C98.4179877,5.42228893 107.845357,10.8445779 117.272727,16.2668668 Z" id="Shape-Copy"></path>
                </g>
            </g>
        </g>
    </g>
</svg>